<svg width="34" height="34" viewBox="0 0 34 34" fill="none" xmlns="http://www.w3.org/2000/svg">
<path d="M34 17C34 26.3888 26.3888 34 17 34C7.61116 34 0 26.3888 0 17C0 7.61116 7.61116 0 17 0C26.3888 0 34 7.61116 34 17Z" fill="black"/>
<path fill-rule="evenodd" clip-rule="evenodd" d="M17 29C23.6274 29 29 23.6274 29 17C29 10.3726 23.6274 5 17 5C10.3726 5 5 10.3726 5 17C5 23.6274 10.3726 29 17 29ZM17 33C25.8366 33 33 25.8366 33 17C33 8.16344 25.8366 1 17 1C8.16344 1 1 8.16344 1 17C1 25.8366 8.16344 33 17 33Z" fill="#FDFDFD"/>
<path fill-rule="evenodd" clip-rule="evenodd" d="M10 9C10.5523 9 11 9.44772 11 10V14.6667C11 14.7139 11.02 14.7853 11.105 14.8609C11.1914 14.9378 11.3292 15 11.5 15H14.5C14.6681 15 14.8091 14.9396 14.8963 14.8621C14.9796 14.788 15 14.7145 15 14.6667V10C15 9.44772 15.4477 9 16 9C16.5523 9 17 9.44772 17 10V14.6667C17 15.3261 16.7043 15.9309 16.225 16.3569C15.7496 16.7795 15.1275 17 14.5 17H11.5C10.2367 17 9 16.0598 9 14.6667V10C9 9.44772 9.44772 9 10 9Z" fill="white"/>
<path fill-rule="evenodd" clip-rule="evenodd" d="M13 9C13.5523 9 14 9.44772 14 10V24C14 24.5523 13.5523 25 13 25C12.4477 25 12 24.5523 12 24V10C12 9.44772 12.4477 9 13 9Z" fill="white"/>
<path fill-rule="evenodd" clip-rule="evenodd" d="M19.5131 10.2725C20.4579 9.44586 21.7138 9 23 9C23.2652 9 23.5196 9.10536 23.7071 9.29289C23.8946 9.48043 24 9.73478 24 10V24C24 24.5523 23.5523 25 23 25C22.4477 25 22 24.5523 22 24V20.1H20.6C19.2973 20.1 18 19.1435 18 17.7V13.5C18 12.2602 18.564 11.103 19.5131 10.2725ZM22 18.1V11.144C21.5559 11.2758 21.1548 11.4936 20.8301 11.7777C20.2788 12.26 20 12.8833 20 13.5V17.7C20 17.7596 20.026 17.8465 20.1285 17.9362C20.2325 18.0271 20.3972 18.1 20.6 18.1H22Z" fill="white"/>
</svg>
